<?xml version="1.0" encoding="utf-8"?>
<svg version="1.1" xmlns:xlink="http://www.w3.org/1999/xlink" width="50px" height="56px" xmlns="http://www.w3.org/2000/svg">
  <defs>
    <pattern id="BGPattern" patternUnits="userSpaceOnUse" alignment="0 0" imageRepeat="None" />
    <mask fill="white" id="Clip31">
      <path d="M 40.58948863636363 25.8125  C 40.80255681818182 26.051136363636363  40.909090909090914 26.356060606060602  40.909090909090914 26.727272727272727  L 40.909090909090914 29.272727272727273  C 40.909090909090914 29.64393939393939  40.80255681818182 29.948863636363637  40.58948863636363 30.1875  C 40.37642045454545 30.426136363636363  40.10416666666667 30.545454545454543  39.77272727272727 30  L 27 30  L 27 44.54545454545455  C 27.27272727272727 44.916666666666664  27.166193181818183 45.22159090909091  26.953125 45.46022727272727  C 26.740056818181817 45.69886363636363  26.467803030303035 45.81818181818181  26.136363636363637 45.81818181818181  L 23.863636363636363 45.81818181818181  C 23.532196969696972 45.81818181818181  23.259943181818183 45.69886363636363  23.046875 45.46022727272727  C 22.833806818181817 45.22159090909091  22.727272727272727 44.916666666666664  23 44.54545454545455  L 23 30  L 10.227272727272728 30  C 9.895833333333334 30.545454545454543  9.623579545454545 30.426136363636363  9.410511363636363 30.1875  C 9.197443181818182 29.948863636363637  9.090909090909092 29.64393939393939  9.090909090909092 29.272727272727273  L 9.090909090909092 26.727272727272727  C 9.090909090909092 26.356060606060602  9.197443181818182 26.051136363636363  9.410511363636363 25.8125  C 9.623579545454545 25.573863636363637  9.895833333333334 25.454545454545457  10.227272727272728 26  L 23 26  L 23 11.454545454545457  C 22.727272727272727 11.083333333333325  22.833806818181817 10.778409090909093  23.046875 10.539772727272728  C 23.259943181818183 10.301136363636363  23.532196969696972 10.18181818181818  23.863636363636363 10.18181818181818  L 26.136363636363637 10.18181818181818  C 26.467803030303035 10.18181818181818  26.740056818181817 10.301136363636363  26.953125 10.539772727272728  C 27.166193181818183 10.778409090909093  27.27272727272727 11.083333333333325  27 11.454545454545457  L 27 26  L 39.77272727272727 26  C 40.10416666666667 25.454545454545457  40.37642045454545 25.573863636363637  40.58948863636363 25.8125  Z M 43.78551136363637 49.03977272727273  C 44.898200757575765 47.793560606060595  45.45454545454545 46.29545454545455  45 44.54545454545455  L 45 11.454545454545457  C 45.45454545454545 9.704545454545457  44.898200757575765 8.206439393939391  43.78551136363637 6.960227272727272  C 42.67282196969697 5.714015151515146  41.33522727272727 5.090909090909093  39.77272727272727 5  L 10.227272727272728 5  C 8.664772727272728 5.090909090909093  7.327178030303032 5.714015151515146  6.214488636363636 6.960227272727272  C 5.101799242424243 8.206439393939391  4.545454545454546 9.704545454545457  5 11.454545454545457  L 5 44.54545454545455  C 4.545454545454546 46.29545454545455  5.101799242424243 47.793560606060595  6.214488636363636 49.03977272727273  C 7.327178030303032 50.285984848484844  8.664772727272728 50.90909090909091  10.227272727272728 51  L 39.77272727272727 51  C 41.33522727272727 50.90909090909091  42.67282196969697 50.285984848484844  43.78551136363637 49.03977272727273  Z M 46.99928977272727 3.360795454545457  C 48.999763257575765 5.601325757575755  50 8.299242424242419  50 11.454545454545457  L 50 44.54545454545455  C 50 47.70075757575758  48.999763257575765 50.39867424242424  46.99928977272727 52.63920454545455  C 44.99881628787879 54.879734848484844  42.589962121212125 56  39.77272727272727 56  L 10.227272727272728 56  C 7.41003787878788 56  5.001183712121213 54.879734848484844  3.000710227272727 52.63920454545455  C 1.0002367424242424 50.39867424242424  0 47.70075757575758  0 44.54545454545455  L 0 11.454545454545457  C 0 8.299242424242419  1.0002367424242424 5.601325757575755  3.000710227272727 3.360795454545457  C 5.001183712121213 1.120265151515146  7.41003787878788 0  10.227272727272728 0  L 39.77272727272727 0  C 42.589962121212125 0  44.99881628787879 1.120265151515146  46.99928977272727 3.360795454545457  Z " fill-rule="evenodd" />
    </mask>
  </defs>
  <g transform="matrix(1 0 0 1 -948 -85 )">
    <path d="M 40.58948863636363 25.8125  C 40.80255681818182 26.051136363636363  40.909090909090914 26.356060606060602  40.909090909090914 26.727272727272727  L 40.909090909090914 29.272727272727273  C 40.909090909090914 29.64393939393939  40.80255681818182 29.948863636363637  40.58948863636363 30.1875  C 40.37642045454545 30.426136363636363  40.10416666666667 30.545454545454543  39.77272727272727 30  L 27 30  L 27 44.54545454545455  C 27.27272727272727 44.916666666666664  27.166193181818183 45.22159090909091  26.953125 45.46022727272727  C 26.740056818181817 45.69886363636363  26.467803030303035 45.81818181818181  26.136363636363637 45.81818181818181  L 23.863636363636363 45.81818181818181  C 23.532196969696972 45.81818181818181  23.259943181818183 45.69886363636363  23.046875 45.46022727272727  C 22.833806818181817 45.22159090909091  22.727272727272727 44.916666666666664  23 44.54545454545455  L 23 30  L 10.227272727272728 30  C 9.895833333333334 30.545454545454543  9.623579545454545 30.426136363636363  9.410511363636363 30.1875  C 9.197443181818182 29.948863636363637  9.090909090909092 29.64393939393939  9.090909090909092 29.272727272727273  L 9.090909090909092 26.727272727272727  C 9.090909090909092 26.356060606060602  9.197443181818182 26.051136363636363  9.410511363636363 25.8125  C 9.623579545454545 25.573863636363637  9.895833333333334 25.454545454545457  10.227272727272728 26  L 23 26  L 23 11.454545454545457  C 22.727272727272727 11.083333333333325  22.833806818181817 10.778409090909093  23.046875 10.539772727272728  C 23.259943181818183 10.301136363636363  23.532196969696972 10.18181818181818  23.863636363636363 10.18181818181818  L 26.136363636363637 10.18181818181818  C 26.467803030303035 10.18181818181818  26.740056818181817 10.301136363636363  26.953125 10.539772727272728  C 27.166193181818183 10.778409090909093  27.27272727272727 11.083333333333325  27 11.454545454545457  L 27 26  L 39.77272727272727 26  C 40.10416666666667 25.454545454545457  40.37642045454545 25.573863636363637  40.58948863636363 25.8125  Z M 43.78551136363637 49.03977272727273  C 44.898200757575765 47.793560606060595  45.45454545454545 46.29545454545455  45 44.54545454545455  L 45 11.454545454545457  C 45.45454545454545 9.704545454545457  44.898200757575765 8.206439393939391  43.78551136363637 6.960227272727272  C 42.67282196969697 5.714015151515146  41.33522727272727 5.090909090909093  39.77272727272727 5  L 10.227272727272728 5  C 8.664772727272728 5.090909090909093  7.327178030303032 5.714015151515146  6.214488636363636 6.960227272727272  C 5.101799242424243 8.206439393939391  4.545454545454546 9.704545454545457  5 11.454545454545457  L 5 44.54545454545455  C 4.545454545454546 46.29545454545455  5.101799242424243 47.793560606060595  6.214488636363636 49.03977272727273  C 7.327178030303032 50.285984848484844  8.664772727272728 50.90909090909091  10.227272727272728 51  L 39.77272727272727 51  C 41.33522727272727 50.90909090909091  42.67282196969697 50.285984848484844  43.78551136363637 49.03977272727273  Z M 46.99928977272727 3.360795454545457  C 48.999763257575765 5.601325757575755  50 8.299242424242419  50 11.454545454545457  L 50 44.54545454545455  C 50 47.70075757575758  48.999763257575765 50.39867424242424  46.99928977272727 52.63920454545455  C 44.99881628787879 54.879734848484844  42.589962121212125 56  39.77272727272727 56  L 10.227272727272728 56  C 7.41003787878788 56  5.001183712121213 54.879734848484844  3.000710227272727 52.63920454545455  C 1.0002367424242424 50.39867424242424  0 47.70075757575758  0 44.54545454545455  L 0 11.454545454545457  C 0 8.299242424242419  1.0002367424242424 5.601325757575755  3.000710227272727 3.360795454545457  C 5.001183712121213 1.120265151515146  7.41003787878788 0  10.227272727272728 0  L 39.77272727272727 0  C 42.589962121212125 0  44.99881628787879 1.120265151515146  46.99928977272727 3.360795454545457  Z " fill-rule="nonzero" fill="rgba(0, 0, 0, 1)" stroke="none" transform="matrix(1 0 0 1 948 85 )" class="fill" />
    <path d="M 40.58948863636363 25.8125  C 40.80255681818182 26.051136363636363  40.909090909090914 26.356060606060602  40.909090909090914 26.727272727272727  L 40.909090909090914 29.272727272727273  C 40.909090909090914 29.64393939393939  40.80255681818182 29.948863636363637  40.58948863636363 30.1875  C 40.37642045454545 30.426136363636363  40.10416666666667 30.545454545454543  39.77272727272727 30  L 27 30  L 27 44.54545454545455  C 27.27272727272727 44.916666666666664  27.166193181818183 45.22159090909091  26.953125 45.46022727272727  C 26.740056818181817 45.69886363636363  26.467803030303035 45.81818181818181  26.136363636363637 45.81818181818181  L 23.863636363636363 45.81818181818181  C 23.532196969696972 45.81818181818181  23.259943181818183 45.69886363636363  23.046875 45.46022727272727  C 22.833806818181817 45.22159090909091  22.727272727272727 44.916666666666664  23 44.54545454545455  L 23 30  L 10.227272727272728 30  C 9.895833333333334 30.545454545454543  9.623579545454545 30.426136363636363  9.410511363636363 30.1875  C 9.197443181818182 29.948863636363637  9.090909090909092 29.64393939393939  9.090909090909092 29.272727272727273  L 9.090909090909092 26.727272727272727  C 9.090909090909092 26.356060606060602  9.197443181818182 26.051136363636363  9.410511363636363 25.8125  C 9.623579545454545 25.573863636363637  9.895833333333334 25.454545454545457  10.227272727272728 26  L 23 26  L 23 11.454545454545457  C 22.727272727272727 11.083333333333325  22.833806818181817 10.778409090909093  23.046875 10.539772727272728  C 23.259943181818183 10.301136363636363  23.532196969696972 10.18181818181818  23.863636363636363 10.18181818181818  L 26.136363636363637 10.18181818181818  C 26.467803030303035 10.18181818181818  26.740056818181817 10.301136363636363  26.953125 10.539772727272728  C 27.166193181818183 10.778409090909093  27.27272727272727 11.083333333333325  27 11.454545454545457  L 27 26  L 39.77272727272727 26  C 40.10416666666667 25.454545454545457  40.37642045454545 25.573863636363637  40.58948863636363 25.8125  Z " stroke-width="0" stroke-dasharray="0" stroke="rgba(255, 255, 255, 0)" fill="none" transform="matrix(1 0 0 1 948 85 )" class="stroke" mask="url(#Clip31)" />
    <path d="M 43.78551136363637 49.03977272727273  C 44.898200757575765 47.793560606060595  45.45454545454545 46.29545454545455  45 44.54545454545455  L 45 11.454545454545457  C 45.45454545454545 9.704545454545457  44.898200757575765 8.206439393939391  43.78551136363637 6.960227272727272  C 42.67282196969697 5.714015151515146  41.33522727272727 5.090909090909093  39.77272727272727 5  L 10.227272727272728 5  C 8.664772727272728 5.090909090909093  7.327178030303032 5.714015151515146  6.214488636363636 6.960227272727272  C 5.101799242424243 8.206439393939391  4.545454545454546 9.704545454545457  5 11.454545454545457  L 5 44.54545454545455  C 4.545454545454546 46.29545454545455  5.101799242424243 47.793560606060595  6.214488636363636 49.03977272727273  C 7.327178030303032 50.285984848484844  8.664772727272728 50.90909090909091  10.227272727272728 51  L 39.77272727272727 51  C 41.33522727272727 50.90909090909091  42.67282196969697 50.285984848484844  43.78551136363637 49.03977272727273  Z " stroke-width="0" stroke-dasharray="0" stroke="rgba(255, 255, 255, 0)" fill="none" transform="matrix(1 0 0 1 948 85 )" class="stroke" mask="url(#Clip31)" />
    <path d="M 46.99928977272727 3.360795454545457  C 48.999763257575765 5.601325757575755  50 8.299242424242419  50 11.454545454545457  L 50 44.54545454545455  C 50 47.70075757575758  48.999763257575765 50.39867424242424  46.99928977272727 52.63920454545455  C 44.99881628787879 54.879734848484844  42.589962121212125 56  39.77272727272727 56  L 10.227272727272728 56  C 7.41003787878788 56  5.001183712121213 54.879734848484844  3.000710227272727 52.63920454545455  C 1.0002367424242424 50.39867424242424  0 47.70075757575758  0 44.54545454545455  L 0 11.454545454545457  C 0 8.299242424242419  1.0002367424242424 5.601325757575755  3.000710227272727 3.360795454545457  C 5.001183712121213 1.120265151515146  7.41003787878788 0  10.227272727272728 0  L 39.77272727272727 0  C 42.589962121212125 0  44.99881628787879 1.120265151515146  46.99928977272727 3.360795454545457  Z " stroke-width="0" stroke-dasharray="0" stroke="rgba(255, 255, 255, 0)" fill="none" transform="matrix(1 0 0 1 948 85 )" class="stroke" mask="url(#Clip31)" />
  </g>
</svg>